<mxfile host="app.diagrams.net" modified="2023-06-21T07:10:15.779Z" agent="Mozilla/5.0 (Windows NT 10.0; Win64; x64) AppleWebKit/537.36 (KHTML, like Gecko) Chrome/114.0.0.0 Safari/537.36" etag="rFWUHPWxwDWLTGpc77TE" version="21.5.0" type="device">
  <diagram name="Page-1" id="GIgKp3IHBKWnie3aWMTd">
    <mxGraphModel dx="1120" dy="484" grid="1" gridSize="10" guides="1" tooltips="1" connect="1" arrows="1" fold="1" page="1" pageScale="1" pageWidth="850" pageHeight="1100" math="0" shadow="0">
      <root>
        <mxCell id="0" />
        <mxCell id="1" parent="0" />
        <mxCell id="YwdVJL5QBy1_DDrabrJf-1" value="FRONT-END" style="rounded=0;whiteSpace=wrap;html=1;" parent="1" vertex="1">
          <mxGeometry x="360" y="140" width="160" height="60" as="geometry" />
        </mxCell>
        <mxCell id="YwdVJL5QBy1_DDrabrJf-2" value="WEB DEVELOPMENT" style="rounded=1;whiteSpace=wrap;html=1;" parent="1" vertex="1">
          <mxGeometry x="100" y="140" width="120" height="60" as="geometry" />
        </mxCell>
        <mxCell id="YwdVJL5QBy1_DDrabrJf-3" value="APPLICATION DEVELOPMENT" style="rounded=1;whiteSpace=wrap;html=1;" parent="1" vertex="1">
          <mxGeometry x="660" y="140" width="120" height="60" as="geometry" />
        </mxCell>
        <mxCell id="YwdVJL5QBy1_DDrabrJf-4" value="" style="endArrow=none;html=1;rounded=0;exitX=1;exitY=0.5;exitDx=0;exitDy=0;entryX=0;entryY=0.5;entryDx=0;entryDy=0;" parent="1" source="YwdVJL5QBy1_DDrabrJf-2" target="YwdVJL5QBy1_DDrabrJf-1" edge="1">
          <mxGeometry width="50" height="50" relative="1" as="geometry">
            <mxPoint x="400" y="260" as="sourcePoint" />
            <mxPoint x="450" y="210" as="targetPoint" />
          </mxGeometry>
        </mxCell>
        <mxCell id="YwdVJL5QBy1_DDrabrJf-6" value="" style="endArrow=none;html=1;rounded=0;exitX=1;exitY=0.5;exitDx=0;exitDy=0;entryX=0;entryY=0.5;entryDx=0;entryDy=0;" parent="1" source="YwdVJL5QBy1_DDrabrJf-1" target="YwdVJL5QBy1_DDrabrJf-3" edge="1">
          <mxGeometry width="50" height="50" relative="1" as="geometry">
            <mxPoint x="580" y="190" as="sourcePoint" />
            <mxPoint x="630" y="140" as="targetPoint" />
          </mxGeometry>
        </mxCell>
        <mxCell id="YwdVJL5QBy1_DDrabrJf-8" value="BACK-END" style="rounded=0;whiteSpace=wrap;html=1;" parent="1" vertex="1">
          <mxGeometry x="360" y="300" width="160" height="60" as="geometry" />
        </mxCell>
        <mxCell id="YwdVJL5QBy1_DDrabrJf-9" value="" style="endArrow=classic;html=1;rounded=0;" parent="1" edge="1">
          <mxGeometry width="50" height="50" relative="1" as="geometry">
            <mxPoint x="440" y="360" as="sourcePoint" />
            <mxPoint x="440" y="460" as="targetPoint" />
          </mxGeometry>
        </mxCell>
        <mxCell id="YwdVJL5QBy1_DDrabrJf-11" value="SECURITY" style="rounded=0;whiteSpace=wrap;html=1;" parent="1" vertex="1">
          <mxGeometry x="360" y="620" width="160" height="60" as="geometry" />
        </mxCell>
        <mxCell id="YwdVJL5QBy1_DDrabrJf-13" value="" style="endArrow=classic;html=1;rounded=0;exitX=0.5;exitY=1;exitDx=0;exitDy=0;entryX=0.5;entryY=0;entryDx=0;entryDy=0;" parent="1" target="YwdVJL5QBy1_DDrabrJf-11" edge="1">
          <mxGeometry width="50" height="50" relative="1" as="geometry">
            <mxPoint x="440" y="520" as="sourcePoint" />
            <mxPoint x="450" y="590" as="targetPoint" />
          </mxGeometry>
        </mxCell>
        <mxCell id="YwdVJL5QBy1_DDrabrJf-16" value="MYSQL/AWS" style="rounded=1;whiteSpace=wrap;html=1;" parent="1" vertex="1">
          <mxGeometry x="100" y="460" width="120" height="60" as="geometry" />
        </mxCell>
        <mxCell id="YwdVJL5QBy1_DDrabrJf-17" value="MYSQL/AWS" style="rounded=1;whiteSpace=wrap;html=1;" parent="1" vertex="1">
          <mxGeometry x="660" y="460" width="120" height="60" as="geometry" />
        </mxCell>
        <mxCell id="YwdVJL5QBy1_DDrabrJf-18" value="BLOCKCHAIN" style="rounded=1;whiteSpace=wrap;html=1;" parent="1" vertex="1">
          <mxGeometry x="100" y="620" width="120" height="60" as="geometry" />
        </mxCell>
        <mxCell id="YwdVJL5QBy1_DDrabrJf-20" value="BLOCKCHAIN" style="rounded=1;whiteSpace=wrap;html=1;" parent="1" vertex="1">
          <mxGeometry x="660" y="620" width="120" height="60" as="geometry" />
        </mxCell>
        <mxCell id="YwdVJL5QBy1_DDrabrJf-25" value="" style="endArrow=none;html=1;rounded=0;entryX=-0.067;entryY=0.588;entryDx=0;entryDy=0;entryPerimeter=0;" parent="1" target="YwdVJL5QBy1_DDrabrJf-30" edge="1">
          <mxGeometry width="50" height="50" relative="1" as="geometry">
            <mxPoint x="220" y="487" as="sourcePoint" />
            <mxPoint x="360" y="489.5" as="targetPoint" />
            <Array as="points">
              <mxPoint x="390" y="487" />
            </Array>
          </mxGeometry>
        </mxCell>
        <mxCell id="YwdVJL5QBy1_DDrabrJf-26" value="" style="endArrow=none;html=1;rounded=0;exitX=1;exitY=0.5;exitDx=0;exitDy=0;entryX=0;entryY=0.5;entryDx=0;entryDy=0;" parent="1" edge="1">
          <mxGeometry width="50" height="50" relative="1" as="geometry">
            <mxPoint x="220" y="649.5" as="sourcePoint" />
            <mxPoint x="360" y="649.5" as="targetPoint" />
          </mxGeometry>
        </mxCell>
        <mxCell id="YwdVJL5QBy1_DDrabrJf-27" value="" style="endArrow=none;html=1;rounded=0;exitX=1;exitY=0.5;exitDx=0;exitDy=0;entryX=0;entryY=0.5;entryDx=0;entryDy=0;" parent="1" edge="1">
          <mxGeometry width="50" height="50" relative="1" as="geometry">
            <mxPoint x="520" y="649.5" as="sourcePoint" />
            <mxPoint x="660" y="649.5" as="targetPoint" />
          </mxGeometry>
        </mxCell>
        <mxCell id="YwdVJL5QBy1_DDrabrJf-29" value="" style="endArrow=none;html=1;rounded=0;" parent="1" edge="1">
          <mxGeometry width="50" height="50" relative="1" as="geometry">
            <mxPoint x="480" y="489" as="sourcePoint" />
            <mxPoint x="660" y="489" as="targetPoint" />
          </mxGeometry>
        </mxCell>
        <mxCell id="YwdVJL5QBy1_DDrabrJf-30" value="DATABASE" style="shape=cylinder3;whiteSpace=wrap;html=1;boundedLbl=1;backgroundOutline=1;size=15;" parent="1" vertex="1">
          <mxGeometry x="390" y="440" width="100" height="80" as="geometry" />
        </mxCell>
        <mxCell id="YwdVJL5QBy1_DDrabrJf-32" value="HTML/CSS/JAVASCRIPT" style="ellipse;whiteSpace=wrap;html=1;" parent="1" vertex="1">
          <mxGeometry x="80" y="236" width="160" height="54" as="geometry" />
        </mxCell>
        <mxCell id="YwdVJL5QBy1_DDrabrJf-33" value="DART/JAVASCRIPT" style="ellipse;whiteSpace=wrap;html=1;" parent="1" vertex="1">
          <mxGeometry x="640" y="239" width="160" height="51" as="geometry" />
        </mxCell>
        <mxCell id="YwdVJL5QBy1_DDrabrJf-34" value="" style="endArrow=none;html=1;rounded=0;entryX=0.5;entryY=0;entryDx=0;entryDy=0;exitX=0.5;exitY=1;exitDx=0;exitDy=0;" parent="1" source="YwdVJL5QBy1_DDrabrJf-3" target="YwdVJL5QBy1_DDrabrJf-33" edge="1">
          <mxGeometry width="50" height="50" relative="1" as="geometry">
            <mxPoint x="490" y="290" as="sourcePoint" />
            <mxPoint x="540" y="240" as="targetPoint" />
          </mxGeometry>
        </mxCell>
        <mxCell id="YwdVJL5QBy1_DDrabrJf-36" value="" style="endArrow=none;html=1;rounded=0;exitX=0.5;exitY=0;exitDx=0;exitDy=0;" parent="1" source="YwdVJL5QBy1_DDrabrJf-32" edge="1">
          <mxGeometry width="50" height="50" relative="1" as="geometry">
            <mxPoint x="150" y="220" as="sourcePoint" />
            <mxPoint x="160" y="200" as="targetPoint" />
          </mxGeometry>
        </mxCell>
        <mxCell id="LKWBA6JsCppDI_FP_3eb-1" value="" style="endArrow=classic;startArrow=classic;html=1;rounded=0;entryX=0.5;entryY=1;entryDx=0;entryDy=0;" edge="1" parent="1">
          <mxGeometry width="50" height="50" relative="1" as="geometry">
            <mxPoint x="441" y="300" as="sourcePoint" />
            <mxPoint x="441" y="200" as="targetPoint" />
          </mxGeometry>
        </mxCell>
      </root>
    </mxGraphModel>
  </diagram>
</mxfile>
